<svg width="14" height="14" viewBox="0 0 14 14" fill="none" xmlns="http://www.w3.org/2000/svg">
<g id="24 / notifications / alert-circle">
<path id="icon" fill-rule="evenodd" clip-rule="evenodd" d="M0.583496 6.99992C0.583496 10.5437 3.45634 13.4166 7.00016 13.4166C10.544 13.4166 13.4168 10.5437 13.4168 6.99992C13.4168 3.45609 10.544 0.583252 7.00016 0.583252C3.45634 0.583252 0.583496 3.45609 0.583496 6.99992ZM12.2502 6.99992C12.2502 9.89941 9.89966 12.2499 7.00016 12.2499C4.10067 12.2499 1.75016 9.89941 1.75016 6.99992C1.75016 4.10042 4.10067 1.74992 7.00016 1.74992C9.89966 1.74992 12.2502 4.10042 12.2502 6.99992ZM7.00035 10.499C7.32263 10.499 7.58388 10.2378 7.58388 9.91562C7.58388 9.59346 7.32263 9.33229 7.00035 9.33229C6.67808 9.33229 6.41683 9.59346 6.41683 9.91562C6.41683 10.2378 6.67808 10.499 7.00035 10.499ZM7.5856 3.49895H6.41855V8.16562H7.5856V3.49895Z" fill="#F6871F"/>
</g>
</svg>
