<svg width="17" height="34" viewBox="0 0 17 34" fill="none" xmlns="http://www.w3.org/2000/svg">
<mask id="path-1-inside-1_123_75" fill="white">
<path d="M1.48619e-06 34C2.23247 34 4.44309 33.5603 6.50562 32.706C8.56815 31.8516 10.4422 30.5994 12.0208 29.0208C13.5994 27.4422 14.8516 25.5682 15.706 23.5056C16.5603 21.4431 17 19.2325 17 17C17 14.7675 16.5603 12.5569 15.706 10.4944C14.8516 8.43185 13.5994 6.55778 12.0208 4.97918C10.4422 3.40059 8.56815 2.14838 6.50562 1.29405C4.44308 0.439718 2.23247 4.5034e-07 -1.90735e-06 7.43094e-07L-1.86108e-06 1.05851C2.09346 1.05851 4.16643 1.47085 6.10054 2.27199C8.03465 3.07312 9.79203 4.24736 11.2723 5.72767C12.7526 7.20797 13.9269 8.96535 14.728 10.8995C15.5291 12.8336 15.9415 14.9065 15.9415 17C15.9415 19.0935 15.5291 21.1664 14.728 23.1005C13.9269 25.0347 12.7526 26.792 11.2723 28.2723C9.79203 29.7526 8.03466 30.9269 6.10054 31.728C4.16643 32.5291 2.09347 32.9415 1.43992e-06 32.9415L1.48619e-06 34Z"/>
</mask>
<path d="M1.48619e-06 34C2.23247 34 4.44309 33.5603 6.50562 32.706C8.56815 31.8516 10.4422 30.5994 12.0208 29.0208C13.5994 27.4422 14.8516 25.5682 15.706 23.5056C16.5603 21.4431 17 19.2325 17 17C17 14.7675 16.5603 12.5569 15.706 10.4944C14.8516 8.43185 13.5994 6.55778 12.0208 4.97918C10.4422 3.40059 8.56815 2.14838 6.50562 1.29405C4.44308 0.439718 2.23247 4.5034e-07 -1.90735e-06 7.43094e-07L-1.86108e-06 1.05851C2.09346 1.05851 4.16643 1.47085 6.10054 2.27199C8.03465 3.07312 9.79203 4.24736 11.2723 5.72767C12.7526 7.20797 13.9269 8.96535 14.728 10.8995C15.5291 12.8336 15.9415 14.9065 15.9415 17C15.9415 19.0935 15.5291 21.1664 14.728 23.1005C13.9269 25.0347 12.7526 26.792 11.2723 28.2723C9.79203 29.7526 8.03466 30.9269 6.10054 31.728C4.16643 32.5291 2.09347 32.9415 1.43992e-06 32.9415L1.48619e-06 34Z" stroke="#F08400" stroke-width="2" mask="url(#path-1-inside-1_123_75)"/>
</svg>
