<svg width="156" height="43" viewBox="0 0 156 43" fill="none" xmlns="http://www.w3.org/2000/svg">
<g clip-path="url(#clip0_96_3446)">
<path d="M58.1899 21.9722C57.2224 22.5552 56.1166 22.7428 53.608 22.7428H52.5713V29.3098H49.337V12.0615H53.6564C55.9715 12.0615 57.1118 12.2693 58.1208 12.8522C58.8867 13.3442 59.507 14.0215 59.9203 14.8171C60.3336 15.6127 60.5256 16.4992 60.4774 17.3888C60.5179 18.2768 60.33 19.1606 59.9307 19.9607C59.5314 20.7607 58.9332 21.452 58.1899 21.9722ZM55.7089 15.2713C55.0282 15.1287 54.3313 15.0724 53.6356 15.1038H52.5713V19.6872H53.5181C54.4181 19.7464 55.3202 19.609 56.1581 19.2851C56.4976 19.1024 56.7774 18.8309 56.9655 18.5016C57.1537 18.1722 57.2427 17.7983 57.2224 17.4223C57.2608 16.9502 57.1316 16.4795 56.8564 16.0883C56.5811 15.6971 56.1763 15.4088 55.7089 15.2713Z" fill="white"/>
<path d="M66.9045 33.6323H63.5251L65.9785 28.0973L61.4242 16.3706H64.6378L67.6786 24.7535L71.2446 16.3706H74.4582L66.9045 33.6323Z" fill="white"/>
<path d="M81.2101 29.6116C80.2918 29.6142 79.382 29.4408 78.5331 29.1013C77.6842 28.7618 76.9128 28.2629 76.2635 27.6333C75.6142 27.0036 75.0996 26.2558 74.7495 25.4326C74.3993 24.6095 74.2204 23.7273 74.2232 22.8369C74.2056 21.9488 74.3718 21.0663 74.7119 20.2415C75.052 19.4167 75.5592 18.6663 76.2034 18.0348C76.8477 17.4032 77.6159 16.9033 78.4628 16.5645C79.3097 16.2257 80.218 16.0549 81.1341 16.0623C82.9278 16.0471 84.6592 16.6994 85.9717 17.8849C86.827 18.6369 87.4411 19.6116 87.7409 20.6926H84.2025C83.9364 20.1347 83.5035 19.6672 82.9601 19.3506C82.4167 19.034 81.7878 18.8829 81.1548 18.9169C78.9848 18.9169 77.4229 20.5519 77.4229 22.8168C77.392 23.321 77.4671 23.826 77.6437 24.3012C77.8203 24.7764 78.0947 25.2117 78.4502 25.5809C78.8057 25.9501 79.2349 26.2453 79.7118 26.4486C80.1886 26.6519 80.7031 26.7591 81.2239 26.7637C81.8358 26.7785 82.4395 26.6261 82.9662 26.3239C83.4929 26.0218 83.9214 25.582 84.2025 25.0549H87.7409C87.3145 26.4015 86.4453 27.5758 85.2661 28.3985C84.0869 29.2213 82.6624 29.6473 81.2101 29.6116Z" fill="white"/>
<path d="M92.7099 15.1038V29.3098H89.4756V12.0615H100.029V15.1172L92.7099 15.1038Z" fill="white"/>
<path d="M106.801 29.3101V20.8334L101.798 29.3101H98.3008V16.3706H101.445V24.8473L106.428 16.3706H109.918V29.3101H106.801Z" fill="white"/>
<path d="M122.572 32.1111V29.3101H114.763V32.1111H111.597V26.2478H113.394L117.403 16.3706H119.904L123.92 26.2478H125.716V32.1111H122.572ZM118.653 20.7195L116.698 26.2277H120.589L118.653 20.7195Z" fill="white"/>
<path d="M134.286 29.6114C133.546 29.6323 132.81 29.5091 132.12 29.249C131.43 28.9888 130.801 28.5971 130.271 28.0969V33.6319H127.161V16.3703H130.036V17.8847C130.568 17.2989 131.226 16.8337 131.964 16.5222C132.702 16.2107 133.502 16.0604 134.307 16.0821C138.087 16.0821 140.824 18.9099 140.824 22.7831C140.824 26.6562 138.059 29.6114 134.286 29.6114ZM133.906 18.8898C133.388 18.8929 132.876 18.9974 132.4 19.197C131.925 19.3965 131.496 19.6871 131.139 20.0512C130.782 20.4154 130.505 20.8456 130.324 21.3162C130.142 21.7868 130.061 22.288 130.084 22.7898C130.057 23.2987 130.137 23.8076 130.319 24.2856C130.501 24.7635 130.782 25.2005 131.144 25.5698C131.506 25.9391 131.942 26.233 132.425 26.4336C132.908 26.6342 133.429 26.7373 133.954 26.7366C134.463 26.7212 134.964 26.6076 135.427 26.4023C135.89 26.197 136.306 25.9042 136.651 25.541C136.996 25.1778 137.263 24.7516 137.436 24.2873C137.609 23.8229 137.684 23.3298 137.658 22.8367C137.658 20.6187 136.034 18.9166 133.906 18.9166V18.8898Z" fill="white"/>
<path d="M149.034 29.6118C147.648 29.6157 146.292 29.2198 145.139 28.4745C143.985 27.7293 143.087 26.6682 142.557 25.4263C142.027 24.1845 141.89 22.8179 142.164 21.5005C142.437 20.183 143.109 18.9742 144.093 18.0277C145.077 17.0812 146.329 16.4399 147.689 16.1852C149.05 15.9306 150.459 16.0741 151.735 16.5976C153.012 17.1211 154.099 18.0009 154.858 19.1251C155.618 20.2493 156.015 21.567 156 22.9108C155.984 24.6924 155.243 26.3957 153.938 27.6505C152.634 28.9053 150.871 29.6101 149.034 29.6118ZM149.034 18.8903C148.002 18.9253 147.026 19.3539 146.318 20.0829C145.61 20.812 145.227 21.7825 145.253 22.7835C145.293 23.5022 145.548 24.1939 145.989 24.7731C146.43 25.3522 147.036 25.7933 147.732 26.0418C148.429 26.2903 149.185 26.3352 149.908 26.1709C150.631 26.0067 151.288 25.6406 151.798 25.1179C152.308 24.5952 152.649 23.9388 152.778 23.2302C152.908 22.5215 152.82 21.7916 152.526 21.1309C152.231 20.4702 151.744 19.9076 151.123 19.513C150.502 19.1183 149.776 18.9088 149.034 18.9104V18.8903Z" fill="white"/>
<path d="M31.182 36.8015C38.4661 33.4511 41.5484 30.4759 42.7302 28.0166C41.3109 32.3725 38.4941 36.1751 34.6902 38.8703C30.8862 41.5655 26.294 43.0123 21.5828 42.9999C17.9684 42.9865 24.7549 39.7299 31.182 36.8015Z" fill="white"/>
<path d="M0.0345665 26.328C0.573618 29.7924 3.57986 36.6006 11.327 40.5341C11.1514 40.442 10.9807 40.3414 10.8156 40.2325C3.90468 35.8099 18.9566 31.4409 30.719 26.261C38.6389 22.7832 43.6424 20.0426 43.1241 16.6653C42.6058 13.288 39.5857 6.40612 31.8524 2.47266L32.3431 2.7541C39.2609 7.18343 24.1882 11.5524 12.4397 16.7524C4.51975 20.2168 -0.483752 22.9508 0.0345665 26.328Z" fill="white"/>
<path d="M11.9766 6.19844C4.6925 9.54892 1.61023 12.5308 0.428467 14.9834C1.84737 10.6286 4.66316 6.82673 8.4657 4.13168C12.2682 1.43663 16.8589 -0.0108601 21.5689 6.13515e-05C25.211 6.13515e-05 18.4037 3.27013 11.9766 6.19844Z" fill="white"/>
<path d="M29.9796 8.2625C31.9008 7.15684 33.3314 6.25221 33.435 5.20686C33.5042 4.53677 33.0757 3.3574 30.9955 2.21824C30.2896 1.85057 29.5519 1.54339 28.7909 1.30021C27.0115 0.797234 25.1707 0.526808 23.3175 0.496094C23.2069 0.924955 22.5296 1.71567 20.947 2.627C21.8109 3.82647 24.3403 5.68933 29.9796 8.2625Z" fill="white"/>
<path d="M40.6708 22.0059C38.48 23.5538 35.46 25.0347 31.3618 26.8372C29.0812 27.8424 26.6762 28.8475 24.3472 29.7589L22.5988 30.4625C24.8655 31.4274 26.4965 32.0908 28.4039 33.0289C29.7485 33.6616 31.0302 34.4131 32.2326 35.2737C39.3923 31.9635 42.8063 27.6749 43.0067 26.0264C43.2071 24.378 42.3778 23.4533 40.6708 22.0059Z" fill="white"/>
<path d="M2.62701 21.068C5.53262 19.0871 8.63486 17.3923 11.8876 16.0088C14.1959 14.9902 16.4903 14.0655 18.7985 13.1274L20.4226 12.4573C13.9402 9.77689 12.2194 8.62432 10.9685 7.7666C4.0783 10.8825 0.187454 15.1578 0.000859 16.7526C-0.185736 18.3474 0.69195 19.6273 2.62701 21.068Z" fill="white"/>
<path d="M13.2344 34.751C10.8985 36.0175 9.6476 37.2638 10.0346 38.47C10.4976 39.9107 13.2413 41.2777 14.7962 41.8205C16.4023 42.2414 18.0538 42.4776 19.7168 42.5241C19.7997 41.6865 21.6311 40.6143 22.1425 40.3061C21.1059 38.9257 18.2517 37.0494 13.2344 34.751Z" fill="white"/>
</g>
<defs>
<clipPath id="clip0_96_3446">
<rect width="156" height="43" fill="white"/>
</clipPath>
</defs>
</svg>
