<svg width="102" height="300" viewBox="0 0 102 300" fill="none" xmlns="http://www.w3.org/2000/svg">
<path d="M18.0804 21.3687C26.3355 13.1155 37.7312 8.02441 50.3157 8.02441C62.9003 8.02441 74.2959 13.1155 82.551 21.3687C90.8061 29.622 95.8983 41.0151 95.8983 53.5969C95.8983 66.1786 90.8061 77.5717 82.551 85.825C74.2959 94.0783 62.9003 99.1693 50.3157 99.1693C37.7312 99.1693 26.3355 94.0783 18.0804 85.825C9.82533 77.5717 4.73315 66.1786 4.73315 53.5969C4.73315 41.0151 9.82533 29.622 18.0804 21.3687ZM50.3157 11.2091C38.606 11.2091 27.9955 15.9637 20.3237 23.6339C12.6518 31.304 7.89619 41.9122 7.89619 53.6193C7.89619 65.3264 12.6518 75.9345 20.3237 83.6047C27.9955 91.2749 38.606 96.0295 50.3157 96.0295C62.0254 96.0295 72.6359 91.2749 80.3078 83.6047C87.9796 75.9345 92.7354 65.3264 92.7354 53.6193C92.7354 41.9122 87.9796 31.304 80.3078 23.6339C72.6359 15.9637 62.0254 11.2091 50.3157 11.2091Z" fill="#0066A6"/>
<path d="M6.39356 78.2893C11.8895 87.821 20.324 95.1547 30.2167 99.3486C39.8626 103.453 50.8769 104.574 61.8463 101.86C70.0789 99.8196 77.3022 95.8948 83.1795 90.6244C89.2586 85.1745 93.9021 78.2893 96.7286 70.5967L99.7121 71.6957C96.7062 79.8817 91.7486 87.193 85.2881 93.0017C79.0295 98.6085 71.3352 102.802 62.609 104.955C50.9442 107.849 39.2344 106.66 28.9828 102.287C18.4845 97.8235 9.51158 90.0412 3.65674 79.8816L6.39356 78.3117V78.2893Z" fill="#F6871F"/>
<path d="M0 34.4887C4.12755 23.5217 11.7097 14.3713 21.3556 8.24865C30.7772 2.28297 42.128 -0.789593 54.1068 0.174784C66.0633 1.13916 76.786 5.98347 85.1308 13.3845C93.6551 20.965 99.6895 31.2143 102 42.6971L98.9043 43.3251C96.7284 32.5375 91.053 22.8937 83.0222 15.7618C75.1933 8.80935 65.0987 4.25657 53.8377 3.33705C42.5766 2.43996 31.8989 5.31066 23.0381 10.9399C13.9754 16.7038 6.81945 25.2935 2.96109 35.5876L0 34.4887Z" fill="#F6871F"/>
<path d="M51.9076 104.911H48.7227V300H51.9076V104.911Z" fill="#F6871F"/>
<path d="M59.8497 252.958L50.316 270.294L40.7598 252.958H48.7234V105.5H51.8863V252.958H59.8497Z" fill="#F6871F"/>
<path d="M58.1397 53.9554C60.4597 54.5554 62.3797 55.8354 63.8997 57.7954C65.4197 59.7554 66.1797 62.0754 66.1797 64.7554C66.1797 68.5954 64.7997 71.6754 62.0397 73.9954C59.3197 76.2754 55.9597 77.4154 51.9597 77.4154C47.9197 77.4154 44.5197 76.2754 41.7597 73.9954C39.0397 71.7154 37.6797 68.6354 37.6797 64.7554C37.6797 62.0354 38.4397 59.7154 39.9597 57.7954C41.4797 55.8754 43.3997 54.5954 45.7197 53.9554V53.8354C43.7597 53.1554 42.1797 51.9754 40.9797 50.2954C39.7797 48.6154 39.1797 46.6354 39.1797 44.3554C39.1797 40.9154 40.3997 38.1354 42.8397 36.0154C45.3197 33.8554 48.3597 32.7754 51.9597 32.7754C55.5597 32.7754 58.5797 33.8354 61.0197 35.9554C63.4597 38.0354 64.6797 40.7954 64.6797 44.2354C64.6797 46.5154 64.0797 48.5354 62.8797 50.2954C61.6797 52.0154 60.0997 53.1954 58.1397 53.8354V53.9554ZM44.9997 44.5354C44.9997 46.4954 45.6597 48.1354 46.9797 49.4554C48.2997 50.7754 49.9597 51.4354 51.9597 51.4354C53.8797 51.4354 55.5197 50.7754 56.8797 49.4554C58.2397 48.0954 58.9197 46.4554 58.9197 44.5354C58.9197 42.5354 58.2397 40.8754 56.8797 39.5554C55.5197 38.2354 53.8797 37.5754 51.9597 37.5754C49.9597 37.5754 48.2997 38.2354 46.9797 39.5554C45.6597 40.8354 44.9997 42.4954 44.9997 44.5354ZM43.6197 64.4554C43.6197 66.8554 44.3797 68.8154 45.8997 70.3354C47.4597 71.8154 49.4797 72.5554 51.9597 72.5554C54.3597 72.5554 56.3397 71.8154 57.8997 70.3354C59.4597 68.8154 60.2397 66.8554 60.2397 64.4554C60.2397 62.1354 59.4597 60.2154 57.8997 58.6954C56.3397 57.1754 54.3597 56.4154 51.9597 56.4154C49.5197 56.4154 47.5197 57.1754 45.9597 58.6954C44.3997 60.1754 43.6197 62.0954 43.6197 64.4554Z" fill="#0066A6"/>
</svg>
