<svg width="102" height="471" viewBox="0 0 102 471" fill="none" xmlns="http://www.w3.org/2000/svg">
<path d="M102 159.1C98.7804 170.358 91.9609 180.092 82.8833 186.955C74.007 193.66 62.9619 197.652 51 197.652C39.0381 197.652 27.993 193.683 19.1166 186.955C10.039 180.092 3.21964 170.358 0 159.1L3.04074 158.225C6.05915 168.811 12.4761 177.961 21.0171 184.42C29.3569 190.722 39.7313 194.468 51 194.468C62.2687 194.468 72.6432 190.722 80.9829 184.42C89.5239 177.961 95.9408 168.811 98.9592 158.225L102 159.1Z" fill="#F6871F"/>
<path d="M60 410H41L51 426L60 410Z" fill="#F6871F"/>
<path d="M53 196H49V470.5H53V196Z" fill="#F6871F"/>
<path d="M98.9592 130.639C95.9408 120.054 89.5239 110.903 80.9829 104.444C72.6432 98.142 62.2687 94.3966 51 94.3966C39.7313 94.3966 29.3569 98.142 21.0171 104.444C12.4761 110.903 6.05915 120.054 3.04074 130.639L0 129.765C3.21964 118.506 10.039 108.773 19.1166 101.91C27.993 95.204 39.0381 91.2119 51 91.2119C62.9619 91.2119 74.007 95.1816 82.8833 101.91C91.9609 108.773 98.7804 118.506 102 129.765L98.9592 130.639Z" fill="#F6871F"/>
<path d="M21.1066 174.418C28.7533 182.088 39.3289 186.842 51.0001 186.842C62.6713 186.842 73.2469 182.088 80.8936 174.418C88.5402 166.748 93.2803 156.139 93.2803 144.432C93.2803 132.725 88.5402 122.117 80.8936 114.447C73.2469 106.777 62.6713 102.022 51.0001 102.022C39.3289 102.022 28.7533 106.777 21.1066 114.447C13.46 122.117 8.71996 132.725 8.71996 144.432C8.71996 156.139 13.46 166.748 21.1066 174.418ZM51.0001 190.005C38.4569 190.005 27.0988 184.914 18.8708 176.66C10.6428 168.407 5.56738 157.014 5.56738 144.432C5.56738 131.851 10.6428 120.457 18.8708 112.204C27.0988 103.951 38.4569 98.8599 51.0001 98.8599C63.5433 98.8599 74.9015 103.951 83.1294 112.204C91.3574 120.457 96.4328 131.851 96.4328 144.432C96.4328 157.014 91.3574 168.407 83.1294 176.66C74.9015 184.914 63.5433 190.005 51.0001 190.005Z" fill="#0066A6"/>
<path d="M52.5874 36.8706H49.4125V92.8269H52.5874V36.8706Z" fill="#F6871F"/>
<path d="M49.4124 0V66.2953H41.4751L50.9999 83.6317L60.5023 66.2953H52.5873V0H49.4124Z" fill="#F6871F"/>
<path d="M58.2 123V150.96H64.32V155.94H58.2V165.48H52.56V155.94H33V150.66L51.06 123H58.2ZM52.56 150.96V129.66H52.44L39 150.96H52.56Z" fill="#0066A6"/>
</svg>
