<svg width="102" height="283" viewBox="0 0 102 283" fill="none" xmlns="http://www.w3.org/2000/svg">
<path d="M18.8019 20.5913C27.039 12.338 38.4096 7.24707 50.9666 7.24707C63.5236 7.24707 74.8943 12.338 83.1313 20.5913C91.3684 28.8446 96.4494 40.2378 96.4494 52.8195C96.4494 65.4013 91.3684 76.7944 83.1313 85.0476C74.8943 93.3009 63.5236 98.3919 50.9666 98.3919C38.4096 98.3919 27.039 93.3009 18.8019 85.0476C10.5649 76.7944 5.48389 65.4013 5.48389 52.8195C5.48389 40.2378 10.5649 28.8446 18.8019 20.5913ZM50.9666 10.4317C39.2826 10.4317 28.6953 15.1863 21.0403 22.8565C13.3852 30.5267 8.63993 41.1348 8.63993 52.8419C8.63993 64.549 13.3852 75.1571 21.0403 82.8273C28.6953 90.4974 39.2826 95.2521 50.9666 95.2521C62.6507 95.2521 73.238 90.4974 80.893 82.8273C88.5481 75.1571 93.2934 64.549 93.2934 52.8419C93.2934 41.1348 88.5481 30.5267 80.893 22.8565C73.238 15.1863 62.6507 10.4317 50.9666 10.4317Z" fill="#0066A6"/>
<path d="M94.3006 83.59C87.5408 93.1441 77.8936 100.074 67.0378 103.528C56.4281 106.914 44.6993 107.004 33.3958 103.012C25.1587 100.119 18.0856 95.3868 12.4674 89.466C6.62539 83.2984 2.37262 75.8301 0 67.7562L3.04409 66.8591C5.26003 74.462 9.28899 81.5042 14.7729 87.2905C20.0553 92.8749 26.7032 97.3155 34.4478 100.029C45.0798 103.775 56.1372 103.685 66.0977 100.5C76.3045 97.2482 85.392 90.7443 91.7265 81.7509L94.3006 83.5676V83.59Z" fill="#F6871F"/>
<path d="M98.9783 39.251C96.5833 31.0201 92.1066 23.507 85.9736 17.474C80.0644 11.6653 72.6332 7.24713 64.0828 4.93711C53.2046 1.97669 42.192 2.85136 32.5 6.75372C22.5619 10.7458 13.9667 17.9001 8.28135 27.3196L5.573 25.6824C11.6165 15.6574 20.7488 8.05451 31.3137 3.81574C41.6548 -0.333326 53.3612 -1.27526 64.911 1.86457C73.9986 4.33158 81.8998 9.04129 88.1895 15.2088C94.6807 21.6006 99.4483 29.6072 102 38.3539L98.9559 39.2286L98.9783 39.251Z" fill="#F6871F"/>
<path d="M52.5788 134.254H49.4004V403H52.5788V134.254Z" fill="#F6871F"/>
<path d="M60.5016 212.495L50.9664 229.832L41.4535 212.495H49.3995V105H52.5556V212.495H60.5016Z" fill="#F6871F"/>
<path d="M58.14 31L46.74 48.1L46.8 48.22C48.08 47.46 49.84 47.08 52.08 47.08C55.84 47.08 58.98 48.34 61.5 50.86C64.06 53.38 65.34 56.56 65.34 60.4C65.34 64.6 63.94 68.02 61.14 70.66C58.38 73.26 54.9 74.56 50.7 74.56C46.46 74.56 42.94 73.24 40.14 70.6C37.38 67.96 36 64.62 36 60.58C36 56.9 37.38 52.88 40.14 48.52L51.24 31H58.14ZM41.88 60.64C41.88 63.16 42.7 65.3 44.34 67.06C45.98 68.78 48.1 69.64 50.7 69.64C53.3 69.64 55.4 68.8 57 67.12C58.64 65.4 59.46 63.22 59.46 60.58C59.46 57.98 58.66 55.86 57.06 54.22C55.46 52.54 53.36 51.7 50.76 51.7C48.12 51.7 45.98 52.54 44.34 54.22C42.7 55.86 41.88 58 41.88 60.64Z" fill="#0066A6"/>
</svg>
