<svg width="102" height="311" viewBox="0 0 102 311" fill="none" xmlns="http://www.w3.org/2000/svg">
<path d="M18.9374 13.3443C27.1654 5.09102 38.5236 0 51.0667 0C63.6099 0 74.9681 5.11344 83.1961 13.3443C91.424 21.5751 96.4995 32.9907 96.4995 45.5724C96.4995 58.1542 91.424 69.5473 83.1961 77.8006C74.9681 86.0538 63.6099 91.1449 51.0667 91.1449C38.5236 91.1449 27.1654 86.0314 18.9374 77.8006C10.7094 69.5473 5.63403 58.1542 5.63403 45.5724C5.63403 32.9907 10.7318 21.5976 18.9374 13.3443ZM51.0667 3.16226C39.3955 3.16226 28.8199 7.91686 21.1733 15.587C13.5266 23.2572 8.7866 33.8653 8.7866 45.5724C8.7866 57.2795 13.5266 67.8877 21.1733 75.5578C28.8199 83.228 39.3955 87.9826 51.0667 87.9826C62.7379 87.9826 73.3136 83.228 80.9602 75.5578C88.6068 67.8877 93.3469 57.2795 93.3469 45.5724C93.3469 33.8653 88.6068 23.2572 80.9602 15.587C73.3136 7.91686 62.7379 3.16226 51.0667 3.16226Z" fill="white"/>
<path d="M102 60.2399C98.7804 71.4984 91.961 81.2319 82.8834 88.0947C74.007 94.8005 62.9618 98.7925 51 98.7925C39.0381 98.7925 27.993 94.8229 19.1166 88.0947C10.039 81.2319 3.21964 71.4984 0 60.2399L3.04077 59.3652C6.05919 69.951 12.4761 79.1013 21.0171 85.5604C29.3569 91.8625 39.7313 95.6079 51 95.6079C62.2687 95.6079 72.6431 91.8625 80.9829 85.5604C89.5239 79.1013 95.9408 69.951 98.9592 59.3652L102 60.2399Z" fill="#F6871F"/>
<path d="M52.5875 97.1777H49.4125L49.4113 311H52.5862L52.5875 97.1777Z" fill="#F6871F"/>
<path d="M60.5252 266.155L51.0005 283.491L41.498 266.155H49.413V97.5H52.5879V266.155H60.5252Z" fill="#F6871F"/>
<path d="M55.28 25V67.48H49.46V32.08L41.42 38.8L38 34.78L50.06 25H55.28Z" fill="white"/>
</svg>
