<svg width="103" height="268" viewBox="0 0 103 268" fill="none" xmlns="http://www.w3.org/2000/svg">
<path d="M18.932 22.1997C27.1871 13.9464 38.5828 8.85547 51.1673 8.85547C63.7519 8.85547 75.1475 13.9464 83.4026 22.1997C91.6577 30.453 96.7498 41.8461 96.7498 54.4278C96.7498 67.0096 91.6577 78.4028 83.4026 86.656C75.1475 94.9093 63.7519 100 51.1673 100C38.5828 100 27.1871 94.9093 18.932 86.656C10.6769 78.4028 5.58472 67.0096 5.58472 54.4278C5.58472 41.8461 10.6769 30.453 18.932 22.1997ZM51.1673 12.0401C39.4576 12.0401 28.8471 16.7947 21.1752 24.4649C13.5034 32.1351 8.74769 42.7432 8.74769 54.4503C8.74769 66.1574 13.5034 76.7655 21.1752 84.4357C28.8471 92.1058 39.4576 96.8605 51.1673 96.8605C62.877 96.8605 73.4875 92.1058 81.1594 84.4357C88.8313 76.7655 93.5869 66.1574 93.5869 54.4503C93.5869 42.7432 88.8313 32.1351 81.1594 24.4649C73.4875 16.7947 62.877 12.0401 51.1673 12.0401Z" fill="#0066A6"/>
<path d="M7.26703 79.0978C12.763 88.6295 21.1975 95.9633 31.0902 100.157C40.7361 104.261 51.7504 105.383 62.7199 102.669C70.9525 100.628 78.1758 96.7033 84.0531 91.4329C90.1322 85.9831 94.7757 79.0979 97.6022 71.4053L100.586 72.5042C97.5798 80.6902 92.6222 88.0015 86.1616 93.8102C79.903 99.417 72.2087 103.611 63.4825 105.764C51.8177 108.657 40.108 107.469 29.8564 103.095C19.3581 98.6321 10.3851 90.8498 4.53027 80.6902L7.26703 79.1203V79.0978Z" fill="#F6871F"/>
<path d="M0.851562 35.2972C4.97912 24.3302 12.5613 15.1799 22.2072 9.05725C31.6288 3.09156 42.9796 0.0190006 54.9585 0.983378C66.915 1.94775 77.6376 6.79203 85.9824 14.1931C94.5067 21.7735 100.541 32.0228 102.852 43.5057L99.756 44.1336C97.58 33.3461 91.9046 23.7023 83.8738 16.5704C76.0449 9.61794 65.9503 5.06517 54.6893 4.14565C43.4282 3.24855 32.7504 6.11922 23.8897 11.7485C14.827 17.5123 7.67102 26.1021 3.81265 36.3962L0.851562 35.2972Z" fill="#F6871F"/>
<path d="M52.8267 105.719H49.6417V267.5H52.8267V105.719Z" fill="#F6871F"/>
<path d="M60.7013 214.271L51.1675 231.63L41.6113 214.271H49.5748V106.5H52.7602V214.271H60.7013Z" fill="#F6871F"/>
<path d="M63.58 32V37.16H46.06L45.7 48.32C47.22 47.8 49.04 47.54 51.16 47.54C55.32 47.54 58.72 48.76 61.36 51.2C64.04 53.64 65.38 56.88 65.38 60.92C65.38 65.28 63.98 68.82 61.18 71.54C58.38 74.22 54.84 75.56 50.56 75.56C47.32 75.56 44.54 74.8 42.22 73.28C39.9 71.76 38.16 69.68 37 67.04L42.28 64.94C42.96 66.66 44.04 68.04 45.52 69.08C47 70.12 48.68 70.64 50.56 70.64C53.08 70.64 55.18 69.8 56.86 68.12C58.58 66.4 59.44 64.2 59.44 61.52C59.44 58.48 58.48 56.18 56.56 54.62C54.68 53.02 52.32 52.22 49.48 52.22C46.2 52.22 43.06 53 40.06 54.56L40.66 32H63.58Z" fill="#0066A6"/>
</svg>
