<svg width="102" height="396" viewBox="0 0 102 396" fill="none" xmlns="http://www.w3.org/2000/svg">
<path d="M102 159.1C98.7804 170.358 91.961 180.092 82.8834 186.955C74.007 193.66 62.9619 197.652 51 197.652C39.0381 197.652 27.993 193.683 19.1166 186.955C10.039 180.092 3.21964 170.358 0 159.1L3.04074 158.225C6.05915 168.811 12.476 177.961 21.017 184.42C29.3568 190.722 39.7313 194.468 51 194.468C62.2687 194.468 72.6431 190.722 80.9828 184.42C89.5238 177.961 95.9408 168.811 98.9593 158.225L102 159.1Z" fill="#F6871F"/>
<path d="M21.1066 174.418C28.7533 182.088 39.3289 186.842 51.0001 186.842C62.6713 186.842 73.2469 182.088 80.8936 174.418C88.5402 166.748 93.2802 156.139 93.2802 144.432C93.2802 132.725 88.5402 122.117 80.8936 114.447C73.2469 106.777 62.6713 102.022 51.0001 102.022C39.3289 102.022 28.7533 106.777 21.1066 114.447C13.46 122.117 8.71989 132.725 8.71989 144.432C8.71989 156.139 13.46 166.748 21.1066 174.418ZM51.0001 190.005C38.4569 190.005 27.0988 184.914 18.8708 176.66C10.6428 168.407 5.56738 157.014 5.56738 144.432C5.56738 131.851 10.6428 120.457 18.8708 112.204C27.0988 103.951 38.4569 98.8599 51.0001 98.8599C63.5433 98.8599 74.9015 103.951 83.1294 112.204C91.3574 120.457 96.4328 131.851 96.4328 144.432C96.4328 157.014 91.3574 168.407 83.1294 176.66C74.9015 184.914 63.5433 190.005 51.0001 190.005Z" fill="#0066A6"/>
<path d="M98.9593 130.639C95.9408 120.054 89.5238 110.903 80.9828 104.444C72.6431 98.142 62.2687 94.3966 51 94.3966C39.7313 94.3966 29.3568 98.142 21.017 104.444C12.476 110.903 6.05915 120.054 3.04074 130.639L0 129.765C3.21964 118.506 10.0166 108.773 19.1166 101.91C27.993 95.204 39.0381 91.2119 51 91.2119C62.9619 91.2119 74.007 95.1816 82.8834 101.91C91.961 108.773 98.7804 118.506 102 129.765L98.9593 130.639Z" fill="#F6871F"/>
<path d="M52.5872 36.8706H49.4124V92.8269H52.5872V36.8706Z" fill="#F6871F"/>
<path d="M49.4129 0V66.2953H41.4756L51.0004 83.6541L60.5028 66.2953H52.5878V0H49.4129Z" fill="#F6871F"/>
<path d="M52.5872 196.038H49.4124V395.5H52.5872V196.038Z" fill="#F6871F"/>
<path d="M63.7397 123.775V129.055L46.6997 166.255H40.0397L57.7397 128.935H36.6797V123.775H63.7397Z" fill="#0066A6"/>
<path d="M60.5038 333.747L51.0014 351.083L41.4766 333.747H49.4138V196H52.5887V333.747H60.5038Z" fill="#F6871F"/>
<path d="M18.9313 112.204C27.1853 103.951 38.5793 98.8599 51.162 98.8599C63.7448 98.8599 75.1388 103.973 83.3927 112.204C91.6467 120.435 96.7381 131.851 96.7381 144.432C96.7381 157.014 91.6467 168.407 83.3927 176.66C75.1388 184.914 63.7448 190.005 51.162 190.005C38.5793 190.005 27.1853 184.891 18.9313 176.66C10.6774 168.43 5.58594 157.014 5.58594 144.432C5.58594 131.851 10.6774 120.457 18.9313 112.204ZM51.162 102.022C39.454 102.022 28.845 106.777 21.1742 114.447C13.5035 122.117 8.74839 132.725 8.74839 144.432C8.74839 156.139 13.5035 166.748 21.1742 174.418C28.845 182.088 39.454 186.842 51.162 186.842C62.8701 186.842 73.479 182.088 81.1498 174.418C88.8206 166.748 93.5755 156.139 93.5755 144.432C93.5755 132.725 88.8206 122.117 81.1498 114.447C73.479 106.777 62.8701 102.022 51.162 102.022Z" fill="#0066A6"/>
</svg>
