<svg width="103" height="254" viewBox="0 0 103 254" fill="none" xmlns="http://www.w3.org/2000/svg">
<path d="M17.8766 21.1633C26.1046 12.9101 37.4627 7.81909 50.0059 7.81909C62.549 7.81909 73.9072 12.9101 82.1352 21.1633C90.3631 29.4166 95.4385 40.8098 95.4385 53.3915C95.4385 65.9733 90.3631 77.3664 82.1352 85.6197C73.9072 93.8729 62.549 98.9639 50.0059 98.9639C37.4627 98.9639 26.1046 93.8729 17.8766 85.6197C9.64864 77.3664 4.57324 65.9733 4.57324 53.3915C4.57324 40.8098 9.671 29.4166 17.8766 21.1633ZM50.0059 10.9814C38.3347 10.9814 27.7591 15.7359 20.1125 23.4061C12.4658 31.0762 7.7258 41.6844 7.7258 53.3915C7.7258 65.0986 12.4658 75.7068 20.1125 83.3769C27.7591 91.0471 38.3347 95.8016 50.0059 95.8016C61.6771 95.8016 72.2527 91.0471 79.8993 83.3769C87.5459 75.7068 92.286 65.0986 92.286 53.3915C92.286 41.6844 87.5459 31.0762 79.8993 23.4061C72.2527 15.7359 61.6771 10.9814 50.0059 10.9814Z" fill="white"/>
<path d="M102.861 57.8995C101.878 69.5617 97.0481 80.439 89.4686 88.939C82.0455 97.2371 71.9842 103.293 60.2459 105.603C51.7049 107.285 43.231 106.814 35.3832 104.548C27.2446 102.194 19.7992 97.9324 13.673 92.1461L15.8418 89.8361C21.6103 95.2635 28.6085 99.278 36.2552 101.476C43.6335 103.606 51.5931 104.055 59.6422 102.463C70.6874 100.287 80.1451 94.6131 87.1209 86.8084C94.2533 78.8243 98.7921 68.5974 99.7088 57.6304L102.861 57.8995Z" fill="#F6871F"/>
<path d="M95.1251 32.153C91.4583 24.3931 85.8463 17.6873 78.8704 12.7084C72.1405 7.90894 64.1138 4.72423 55.3045 3.78228C44.1028 2.59363 33.3931 5.19523 24.4273 10.6002C15.2603 16.1174 7.92664 24.5276 3.7903 34.7321L0.861328 33.5435C5.24361 22.6886 13.0468 13.7401 22.8175 7.86408C32.3422 2.1451 43.7451 -0.635852 55.6399 0.620082C65.0081 1.60689 73.5267 4.99338 80.7038 10.1068C88.1269 15.3997 94.0966 22.5316 97.987 30.7849L95.1251 32.1305V32.153Z" fill="#F6871F"/>
<path d="M51.5483 177.751H48.3734V374.237H51.5483V177.751Z" fill="#F6871F"/>
<path d="M59.4632 173.131L49.9608 190.49L40.436 173.131H48.3733V105.02H51.5259V173.131H59.4632Z" fill="#F6871F"/>
<path d="M46.38 54.76V49.96H48.24C51 49.96 53.26 49.42 55.02 48.34C56.82 47.22 57.72 45.4 57.72 42.88C57.72 40.8 56.98 39.12 55.5 37.84C54.06 36.52 52.3 35.86 50.22 35.86C46.62 35.86 44.14 37.6 42.78 41.08L37.5 39.22C38.54 36.66 40.2 34.66 42.48 33.22C44.8 31.74 47.46 31 50.46 31C54.18 31 57.28 32.02 59.76 34.06C62.28 36.1 63.54 38.92 63.54 42.52C63.54 44.88 62.84 46.94 61.44 48.7C60.04 50.46 58.24 51.62 56.04 52.18V52.3C58.6 52.82 60.68 54.02 62.28 55.9C63.88 57.74 64.68 60 64.68 62.68C64.68 66.72 63.28 69.9 60.48 72.22C57.68 74.5 54.34 75.64 50.46 75.64C47.02 75.64 44.04 74.86 41.52 73.3C39 71.74 37.16 69.4 36 66.28L41.4 64.48C42.04 66.36 43.14 67.88 44.7 69.04C46.3 70.16 48.18 70.72 50.34 70.72C52.66 70.72 54.66 70.02 56.34 68.62C58.02 67.18 58.86 65.18 58.86 62.62C58.86 59.9 57.8 57.92 55.68 56.68C53.6 55.4 51.1 54.76 48.18 54.76H46.38Z" fill="white"/>
</svg>
