<svg width="105" height="364" viewBox="0 0 105 364" fill="none" xmlns="http://www.w3.org/2000/svg">
<path d="M18.9049 21.136C27.1478 12.8828 38.5267 7.79175 51.0927 7.79175C63.6587 7.79175 75.0376 12.8828 83.2805 21.136C91.5235 29.3893 96.6081 40.7824 96.6081 53.3642C96.6081 65.9459 91.5235 77.339 83.2805 85.5923C75.0376 93.8456 63.6587 98.9366 51.0927 98.9366C38.5267 98.9366 27.1478 93.8456 18.9049 85.5923C10.6619 77.339 5.57727 65.9459 5.57727 53.3642C5.57727 40.7824 10.6843 29.3893 18.9049 21.136ZM51.0927 10.954C39.4002 10.954 28.8054 15.7086 21.1448 23.3788C13.4842 31.0489 8.73558 41.6571 8.73558 53.3642C8.73558 65.0713 13.4842 75.6794 21.1448 83.3496C28.8054 91.0197 39.4002 95.7743 51.0927 95.7743C62.7851 95.7743 73.38 91.0197 81.0406 83.3496C88.7012 75.6794 93.4498 65.0713 93.4498 53.3642C93.4498 41.6571 88.7012 31.0489 81.0406 23.3788C73.38 15.7086 62.7851 10.954 51.0927 10.954Z" fill="white"/>
<path d="M92.6879 25.4419C86.5729 16.2915 77.6803 9.54088 67.5558 6.01978C57.6777 2.56596 46.6125 2.1847 35.8832 5.63852C27.8418 8.21766 20.898 12.6359 15.3878 18.2876C9.69837 24.1411 5.53209 31.3178 3.20256 39.1898L0.15625 38.2928C2.59778 29.9274 7.05524 22.302 13.1031 16.0896C18.9717 10.0791 26.3411 5.39181 34.92 2.65567C46.3437 -0.999991 58.0809 -0.596314 68.5862 3.05935C79.3379 6.80472 88.8128 13.9815 95.3086 23.715L92.6879 25.4867V25.4419Z" fill="#F6871F"/>
<path d="M104.156 56.9301C103.372 68.6148 98.7133 79.5593 91.2543 88.1714C83.9521 96.6041 73.9844 102.794 62.2472 105.306C50.5323 107.818 38.8847 106.248 28.7826 101.561C18.4565 96.7611 9.74314 88.6648 4.23291 78.3258L7.01043 76.8456C12.1847 86.5567 20.3828 94.1595 30.1041 98.6674C39.6015 103.086 50.5547 104.566 61.5752 102.189C72.5957 99.8337 81.981 93.9801 88.8352 86.0857C95.8462 77.967 100.214 67.6728 100.976 56.7058L104.134 56.9077L104.156 56.9301Z" fill="#F6871F"/>
<path d="M52.9995 105H49.9995V363.5H52.9995V105Z" fill="#F6871F"/>
<path d="M52.9998 349.418L51.5001 361L50.0002 349.418V105H53L52.9998 349.418Z" fill="#F6871F"/>
<path d="M64.72 68.34V73.56H37V67.98L53.92 51.18C57.04 47.98 58.6 44.98 58.6 42.18C58.6 40.02 57.88 38.26 56.44 36.9C55 35.54 53.2 34.86 51.04 34.86C48.92 34.86 47.14 35.54 45.7 36.9C44.3 38.26 43.42 40.04 43.06 42.24L37.36 41.28C37.88 38 39.4 35.3 41.92 33.18C44.44 31.06 47.5 30 51.1 30C54.86 30 58.04 31.06 60.64 33.18C63.24 35.3 64.54 38.26 64.54 42.06C64.54 44.54 63.96 46.76 62.8 48.72C61.64 50.64 59.94 52.7 57.7 54.9L43.9 68.34H64.72Z" fill="white"/>
<path d="M61 316H42L52 332L61 316Z" fill="#F6871F"/>
</svg>
