<svg width="97" height="99" viewBox="0 0 97 99" fill="none" xmlns="http://www.w3.org/2000/svg">
<path d="M13.3848 20.5914C21.6631 12.3381 33.0908 7.24707 45.7107 7.24707C58.3307 7.24707 69.7584 12.3381 78.0367 20.5914C86.315 28.8447 91.4215 40.2378 91.4215 52.8195C91.4215 65.4013 86.2925 76.7944 78.0367 85.0476C69.7809 93.3009 58.3307 98.392 45.7107 98.392C33.0908 98.392 21.6631 93.3009 13.3848 85.0476C5.10649 76.7944 0 65.4013 0 52.8195C0 40.2378 5.10649 28.8447 13.3848 20.5914ZM45.7107 10.4318C33.9681 10.4318 23.3278 15.1863 15.6344 22.8565C7.94092 30.5267 3.1718 41.1349 3.1718 52.842C3.1718 64.5491 7.94092 75.1572 15.6344 82.8274C23.3278 90.4975 33.9681 95.2521 45.7107 95.2521C57.4534 95.2521 68.0937 90.4975 75.7871 82.8274C83.4806 75.1572 88.2496 64.5491 88.2496 52.842C88.2496 41.1349 83.4806 30.5267 75.7871 22.8565C68.0937 15.1863 57.4534 10.4318 45.7107 10.4318Z" fill="#0066A6"/>
<path d="M37.6233 73.894L49.0233 56.734L48.9633 56.674C48.3633 57.034 47.5433 57.314 46.5033 57.514C45.4233 57.714 44.4633 57.814 43.6233 57.814C39.8633 57.814 36.7033 56.554 34.1433 54.034C31.6233 51.514 30.3633 48.334 30.3633 44.494C30.3633 40.294 31.7433 36.894 34.5033 34.294C37.3033 31.654 40.8233 30.334 45.0633 30.334C49.2633 30.334 52.7433 31.674 55.5033 34.354C58.3033 36.994 59.7033 40.314 59.7033 44.314C59.7033 47.954 58.3433 51.974 55.6233 56.374L44.5233 73.894H37.6233ZM53.8833 44.254C53.8833 41.694 53.0633 39.554 51.4233 37.834C49.7833 36.074 47.6633 35.194 45.0633 35.194C42.4633 35.194 40.3433 36.054 38.7033 37.774C37.0633 39.494 36.2433 41.674 36.2433 44.314C36.2433 46.914 37.0433 49.054 38.6433 50.734C40.2833 52.374 42.4033 53.194 45.0033 53.194C47.6433 53.194 49.7833 52.374 51.4233 50.734C53.0633 49.054 53.8833 46.894 53.8833 44.254Z" fill="#0066A6"/>
<path d="M93.9635 39.251C91.5565 31.0202 87.0574 23.507 80.8937 17.474C74.9549 11.6653 67.4865 7.24713 58.8932 4.93711C47.9604 1.97669 36.8927 2.85136 27.1522 6.75372C17.1642 10.7458 8.52593 17.9002 2.81209 27.3197L0.0900879 25.6824C6.16386 15.6574 15.342 8.05451 25.9598 3.81574C36.3527 -0.333326 48.1179 -1.27526 59.7255 1.86457C68.8587 4.33158 76.7996 9.04136 83.1208 15.2089C89.667 21.6007 94.436 29.6072 97.0005 38.3539L93.9411 39.2286L93.9635 39.251Z" fill="#F6871F"/>
</svg>
